# xmcd
#
# Track frame offsets:
#	150
#	15306
#	32576
#	49468
#	62755
#	77603
#	95506
#	106969
#	123150
#	144756
#	163239
#	178777
#	193355
#	209154
#	218084
#	240166
#	257673
#	270059
#
# Disc length: 3832 seconds
#
# Revision: 1
# Processed by: cddbd v1.5.2PL0 Copyright (c) Steve Scherf et al.
# Submitted via: audiograbber 1.83.01
#
DISCID=f40ef612
DTITLE=Suzanne Vega - The best of
DYEAR=1900
DGENRE=
TTITLE0=Luka
TTITLE1=Toms dinner
TTITLE2=Marlene on the wall
TTITLE3=Caramel
TTITLE4=99.9 F
TTITLE5=Small blue thing
TTITLE6=Blood makes noice
TTITLE7=Left of center
TTITLE8=In liverpool
TTITLE9=Gypsy
TTITLE10=Book of dreams
TTITLE11=No cheap thrill
TTITLE12=World before Columbus
TTITLE13=When heroes go down
TTITLE14=The queen of soldier
TTITLE15=Book and a cover
TTITLE16=Rosemary
TTITLE17=Luka
EXTD=
EXTT0=
EXTT1=
EXTT2=
EXTT3=
EXTT4=
EXTT5=
EXTT6=
EXTT7=
EXTT8=
EXTT9=
EXTT10=
EXTT11=
EXTT12=
EXTT13=
EXTT14=
EXTT15=
EXTT16=
EXTT17=
PLAYORDER=
